<svg xmlns="http://www.w3.org/2000/svg" width="1000" height="600" viewBox="0 0 1000 600"><rect width="100%" height="100%" fill="#DDDDDD"/><path fill="#999999" d="M240.9 331.74h15.34v10.92h-47.2v-10.92h17.29v-49.73q0-2.95.18-6.08l-12.28 10.27q-1.06.82-2.09 1.03t-1.95.03q-.91-.18-1.62-.62t-1.06-.97l-4.6-6.32 26.01-22.12h11.98zM329.11 300q0 11.15-2.39 19.38t-6.61 13.6-9.97 8q-5.75 2.62-12.42 2.62t-12.36-2.62q-5.7-2.63-9.88-8-4.19-5.37-6.55-13.6T266.57 300q0-11.21 2.36-19.41t6.55-13.57q4.18-5.37 9.88-7.99 5.69-2.63 12.36-2.63t12.42 2.63q5.75 2.62 9.97 7.99t6.61 13.57 2.39 19.41m-15.05 0q0-9.26-1.36-15.34-1.35-6.07-3.62-9.67-2.28-3.6-5.23-5.05-2.95-1.44-6.13-1.44-3.13 0-6.05 1.44-2.92 1.45-5.16 5.05t-3.57 9.67q-1.33 6.08-1.33 15.34 0 9.27 1.33 15.34 1.33 6.08 3.57 9.68t5.16 5.04q2.92 1.45 6.05 1.45 3.18 0 6.13-1.45 2.95-1.44 5.23-5.04 2.27-3.6 3.62-9.68 1.36-6.07 1.36-15.34m83.49 0q0 11.15-2.39 19.38t-6.61 13.6-9.97 8q-5.75 2.62-12.42 2.62t-12.36-2.62q-5.7-2.63-9.88-8-4.19-5.37-6.55-13.6T335.01 300q0-11.21 2.36-19.41t6.55-13.57q4.18-5.37 9.88-7.99 5.69-2.63 12.36-2.63t12.42 2.63q5.75 2.62 9.97 7.99t6.61 13.57 2.39 19.41m-15.05 0q0-9.26-1.36-15.34-1.35-6.07-3.62-9.67-2.28-3.6-5.23-5.05-2.95-1.44-6.13-1.44-3.13 0-6.05 1.44-2.92 1.45-5.16 5.05t-3.57 9.67q-1.33 6.08-1.33 15.34 0 9.27 1.33 15.34 1.33 6.08 3.57 9.68t5.16 5.04q2.92 1.45 6.05 1.45 3.18 0 6.13-1.45 2.95-1.44 5.23-5.04 2.27-3.6 3.62-9.68 1.36-6.07 1.36-15.34m83.49 0q0 11.15-2.39 19.38t-6.61 13.6-9.97 8q-5.75 2.62-12.42 2.62t-12.36-2.62q-5.7-2.63-9.88-8-4.19-5.37-6.55-13.6T403.45 300q0-11.21 2.36-19.41t6.55-13.57q4.18-5.37 9.88-7.99 5.69-2.63 12.36-2.63t12.42 2.63q5.75 2.62 9.97 7.99t6.61 13.57 2.39 19.41m-15.05 0q0-9.26-1.36-15.34-1.35-6.07-3.62-9.67-2.28-3.6-5.23-5.05-2.95-1.44-6.13-1.44-3.13 0-6.05 1.44-2.92 1.45-5.16 5.05t-3.57 9.67q-1.33 6.08-1.33 15.34 0 9.27 1.33 15.34 1.33 6.08 3.57 9.68t5.16 5.04q2.92 1.45 6.05 1.45 3.18 0 6.13-1.45 2.95-1.44 5.23-5.04 2.27-3.6 3.62-9.68 1.36-6.07 1.36-15.34m108.74 23.13-7.73 7.61-20-20-20.18 20.12-7.73-7.61 20.18-20.24-19.23-19.23 7.67-7.67 19.23 19.23 19.12-19.11 7.78 7.67-19.17 19.17zm91.15-65.78-25.31 30.97-2.95 3.66q2.48-1.24 5.34-1.92t6.17-.68q4.84 0 9.41 1.6 4.57 1.59 8.05 4.8 3.48 3.22 5.61 8 2.12 4.78 2.12 11.15 0 5.96-2.18 11.18-2.19 5.22-6.14 9.12-3.95 3.89-9.53 6.13-5.57 2.24-12.3 2.24-6.84 0-12.27-2.18t-9.26-6.11q-3.84-3.92-5.87-9.44-2.04-5.51-2.04-12.24 0-6.02 2.45-12.36t7.58-13.19l20.36-27.31q1.06-1.42 3.09-2.42 2.04-1 4.69-1zm-22 74.34q3.48 0 6.4-1.18t5.01-3.31q2.1-2.12 3.28-4.98 1.18-2.87 1.18-6.23 0-3.66-1.12-6.58t-3.19-4.95q-2.06-2.04-4.96-3.1-2.89-1.06-6.37-1.06t-6.31 1.18-4.84 3.27q-2 2.1-3.13 4.96-1.12 2.86-1.12 6.16 0 3.54.98 6.46.97 2.92 2.89 4.99 1.92 2.06 4.75 3.22 2.83 1.15 6.55 1.15M728.65 300q0 11.15-2.39 19.38-2.38 8.23-6.6 13.6t-9.97 8q-5.76 2.62-12.42 2.62-6.67 0-12.36-2.62-5.7-2.63-9.89-8t-6.55-13.6-2.36-19.38q0-11.21 2.36-19.41t6.55-13.57 9.89-7.99q5.69-2.63 12.36-2.63 6.66 0 12.42 2.63 5.75 2.62 9.97 7.99t6.6 13.57q2.39 8.2 2.39 19.41m-15.04 0q0-9.26-1.36-15.34-1.35-6.07-3.63-9.67-2.27-3.6-5.22-5.05-2.95-1.44-6.13-1.44-3.13 0-6.05 1.44-2.92 1.45-5.16 5.05-2.25 3.6-3.57 9.67-1.33 6.08-1.33 15.34 0 9.27 1.33 15.34 1.32 6.08 3.57 9.68 2.24 3.6 5.16 5.04 2.92 1.45 6.05 1.45 3.18 0 6.13-1.45 2.95-1.44 5.22-5.04 2.28-3.6 3.63-9.68 1.36-6.07 1.36-15.34m83.48 0q0 11.15-2.39 19.38-2.38 8.23-6.6 13.6t-9.97 8q-5.76 2.62-12.42 2.62-6.67 0-12.36-2.62-5.7-2.63-9.89-8t-6.55-13.6-2.36-19.38q0-11.21 2.36-19.41t6.55-13.57 9.89-7.99q5.69-2.63 12.36-2.63 6.66 0 12.42 2.63 5.75 2.62 9.97 7.99t6.6 13.57q2.39 8.2 2.39 19.41m-15.04 0q0-9.26-1.36-15.34-1.35-6.07-3.63-9.67-2.27-3.6-5.22-5.05-2.95-1.44-6.13-1.44-3.13 0-6.05 1.44-2.92 1.45-5.16 5.05-2.25 3.6-3.57 9.67-1.33 6.08-1.33 15.34 0 9.27 1.33 15.34 1.32 6.08 3.57 9.68 2.24 3.6 5.16 5.04 2.92 1.45 6.05 1.45 3.18 0 6.13-1.45 2.95-1.44 5.22-5.04 2.28-3.6 3.63-9.68 1.36-6.07 1.36-15.34"/></svg>