<?xml version="1.0" encoding="UTF-8"?>
<svg id="Ebene_1" data-name="Ebene 1" xmlns="http://www.w3.org/2000/svg" xmlns:xlink="http://www.w3.org/1999/xlink" viewBox="0 0 106 106">
  <defs>
    <style>
      .cls-1, .cls-2 {
        fill: none;
      }

      .cls-2 {
        stroke: #617482;
      }

      .cls-3 {
        clip-path: url(#clippath-1);
      }

      .cls-4 {
        fill: #617482;
      }

      .cls-5 {
        clip-path: url(#clippath);
      }
    </style>
    <clipPath id="clippath">
      <rect class="cls-1" width="106" height="106"/>
    </clipPath>
    <clipPath id="clippath-1">
      <rect class="cls-1" width="106" height="106"/>
    </clipPath>
  </defs>
  <g class="cls-5">
    <circle class="cls-2" cx="53" cy="53" r="52.5"/>
    <path class="cls-4" d="M51.4,60.99l-28.37-9.97c-.78-2.43-2.63-4.48-5.22-5.42-3.08-1.12-6.38-.13-8.66,2.07-.01.01-.26.25-.57.65-.23.3-.47.68-.73,1.12-.17.29-.33.66-.46,1.01-.1.26-.18.5-.24.73-.11.39-.18.73-.22.95-.01.06,0,.12.06.16.03.03.08.05.13.07.09.03,42.24,13.83,42.24,13.83,0,0,1.05.37,1.26.41.14.03.28.04.42.04h.12c.15,0,1.26-.16,1.26-.16l31.04-4.09,11.25,5.49c.04-.11.08-.22.13-.33.57-1.65,1.06-3.35,1.43-5.09l-11.18-5.45c-.07-.03-.13-.06-.2-.08-.02,0-.04-.02-.06-.02-.11-.04-.21-.07-.32-.09-.19-.05-.38-.08-.58-.08h-.06c-.1,0-.21,0-.32.02l-32.17,4.24ZM61.95,44.91l-25.3-8.49c-1.44-.52-2.94-.54-4.3-.14-.34.1-.67.22-.99.37-1.59.74-2.91,2.09-3.57,3.86-1.15,3.1.12,6.52,2.79,8.25.43.28.91.52,1.41.7l20.84,7.25c1.11.4,2.25.48,3.33.29l28.63-3.75,7.77,3.79,4.32,2.1c.28-2.01.44-4.07.44-6.16,0-1.17-.06-2.33-.15-3.48l-1.89-.99-8.24-4.34s-.97-.55-2.07-.89c-.91-.29-1.9-.38-2.57-.4-.58-.02-1.19,0-1.77.07-.03,0-.06,0-.09,0l-18.58,1.96Z"/>
    <path class="cls-4" d="M22.38,30.21c3.68,1.34,5.58,5.42,4.24,9.1-1.34,3.69-5.42,5.59-9.1,4.25-3.68-1.34-5.58-5.42-4.24-9.1,1.34-3.69,5.42-5.59,9.1-4.25"/>
  </g>
  <g class="cls-3">
    <path class="cls-4" d="M83.51,65.71l-5.61.74c-1.27,4.31-3.66,8.35-7.18,11.63-10.46,9.76-26.91,9.19-36.66-1.26-3.94-4.22-6.19-9.43-6.78-14.77l-5.4-1.86c.11,3.3.72,6.54,1.86,9.66,1.43,3.92,3.61,7.47,6.48,10.55,2.87,3.08,6.26,5.5,10.07,7.2,3.68,1.64,7.6,2.55,11.65,2.69,4.05.14,8.02-.49,11.81-1.88,3.92-1.43,7.47-3.62,10.55-6.49,3.08-2.87,5.5-6.26,7.21-10.07.89-1.98,1.55-4.03,2-6.13"/>
  </g>
</svg>