<?xml version="1.0" encoding="UTF-8"?>
<svg id="Ebene_1" data-name="Ebene 1" xmlns="http://www.w3.org/2000/svg" xmlns:xlink="http://www.w3.org/1999/xlink" viewBox="0 0 106 106">
  <defs>
    <style>
      .cls-1, .cls-2 {
        fill: none;
      }

      .cls-2 {
        stroke: #617482;
      }

      .cls-3 {
        fill: #617482;
      }

      .cls-4 {
        clip-path: url(#clippath);
      }
    </style>
    <clipPath id="clippath">
      <rect class="cls-1" width="106" height="106"/>
    </clipPath>
  </defs>
  <g class="cls-4">
    <circle class="cls-2" cx="53" cy="53" r="52.5"/>
    <path class="cls-3" d="M89.06,75.38c1.08,2.01.36,4.51-1.61,5.65-2.02,1.17-4.61.47-5.77-1.55l-2.67-4.62-3.13-5.42-4.33-7.49h-25.68c-3.58,0-6.49-2.9-6.49-6.49v-23.31c0-.54.06-1.06.18-1.56.71-3.1,3.5-5.46,6.8-5.44,1.89.01,3.61.78,4.85,2.03.25.25.48.52.69.81.84,1.15,1.34,2.56,1.34,4.09v6.26h16.05c1.83,0,3.31,1.48,3.31,3.31h0c0,.47-.1.92-.28,1.33-.51,1.17-1.68,1.98-3.04,1.98h-16.05v5.56h18.69c2.29-.01,4.4,1.22,5.52,3.21.02.04.04.08.07.12l5.39,10.05,6.17,11.49Z"/>
    <path class="cls-3" d="M76.98,77.91c-.87,1.15-1.83,2.25-2.86,3.28-2.86,2.86-6.2,5.11-9.92,6.68-3.85,1.63-7.93,2.45-12.14,2.45s-8.3-.83-12.14-2.45c-3.72-1.57-7.05-3.82-9.92-6.68-2.86-2.86-5.11-6.19-6.68-9.91-1.63-3.84-2.45-7.93-2.45-12.13s.83-8.29,2.45-12.13c1.57-3.71,3.82-7.04,6.68-9.91,1.84-1.84,3.88-3.43,6.09-4.75v6.36c-6.08,4.75-9.99,12.14-9.99,20.43,0,14.3,11.64,25.93,25.95,25.93,9.27,0,17.42-4.88,22.01-12.21l2.1,3.63.81,1.4Z"/>
    <path class="cls-3" d="M53.41,16.76c0,3.92-3.18,7.1-7.11,7.1s-7.11-3.18-7.11-7.1,3.18-7.1,7.11-7.1,7.11,3.18,7.11,7.1"/>
  </g>
</svg>