<?xml version="1.0" encoding="UTF-8"?>
<svg id="Ebene_1" data-name="Ebene 1" xmlns="http://www.w3.org/2000/svg" xmlns:xlink="http://www.w3.org/1999/xlink" viewBox="0 0 106 106">
  <defs>
    <style>
      .cls-1, .cls-2 {
        fill: none;
      }

      .cls-2 {
        stroke: #617482;
      }

      .cls-3 {
        fill: #617482;
      }

      .cls-4 {
        clip-path: url(#clippath);
      }
    </style>
    <clipPath id="clippath">
      <rect class="cls-1" width="106" height="106"/>
    </clipPath>
  </defs>
  <g class="cls-4">
    <circle class="cls-2" cx="53" cy="53" r="52.5"/>
    <path class="cls-3" d="M88.88,75.38c1.08,2.01.36,4.51-1.61,5.65-2.02,1.17-4.61.47-5.77-1.55l-2.67-4.62-3.13-5.42-4.33-7.49h-25.68c-3.58,0-6.49-2.9-6.49-6.49v-23.31c0-.54.06-1.06.18-1.56.71-3.1,3.5-5.46,6.8-5.44,1.89.01,3.61.78,4.85,2.03.25.25.48.52.69.81.84,1.15,1.34,2.56,1.34,4.09v6.26h16.05c1.83,0,3.31,1.48,3.31,3.31h0c0,.47-.1.92-.28,1.33-.51,1.17-1.68,1.98-3.04,1.98h-16.05v5.56h18.69c2.29-.01,4.4,1.22,5.52,3.21.02.04.04.08.07.12l5.39,10.05,6.17,11.49Z"/>
    <path class="cls-3" d="M53.23,16.76c0,3.92-3.18,7.1-7.11,7.1s-7.1-3.18-7.1-7.1,3.18-7.1,7.1-7.1,7.11,3.18,7.11,7.1"/>
    <path class="cls-3" d="M34.5,75.9v11.16c0,1.6,1.3,2.91,2.91,2.91s2.91-1.3,2.91-2.91v-11.16h-5.81Z"/>
    <path class="cls-3" d="M74.66,80.32h0c0-6.66-4.82-12.19-11.14-13.41-.78-.15-1.66-.23-2.47-.25-.06,0-.77-.01-.77-.01h-25.79V25.84c0-1.74-1.41-3.15-3.15-3.15s-3.15,1.41-3.15,3.15v43.96c0,1.64,1.25,2.99,2.86,3.13.04,0,.1.01.14.01.03,0,15.56,0,26.78,0-2,1.83-3.27,4.45-3.27,7.37,0,5.51,4.47,9.98,9.98,9.98s9.98-4.47,9.98-9.98"/>
  </g>
</svg>