<?xml version="1.0" encoding="UTF-8"?><svg id="Ebene_1" xmlns="http://www.w3.org/2000/svg" xmlns:xlink="http://www.w3.org/1999/xlink" viewBox="0 0 380 77.78"><defs><style>.cls-1{fill:none;}.cls-2{fill:#b54159;}.cls-3{clip-path:url(#clippath-1);}.cls-4{clip-path:url(#clippath-2);}.cls-5{fill:#52636f;}.cls-6{clip-path:url(#clippath);}</style><clipPath id="clippath"><rect class="cls-1" width="380" height="77.78"/></clipPath><clipPath id="clippath-1"><rect class="cls-1" width="380" height="77.78"/></clipPath><clipPath id="clippath-2"><rect class="cls-1" width="380" height="77.78"/></clipPath></defs><g class="cls-6"><path class="cls-5" d="M37.06,69.58v-37.08h-6.99l-10.02,17.44-1.53,3.7-1.53-3.7-10.02-17.44H0v37.95c2.14-.04,4.51-.09,7.09-.14v-19.5l-1-7.52h.1l2.48,6.05,8.56,14.28h2.62l8.56-14.28,2.48-6.05h.1l-1,7.52v18.97c2.31-.06,4.67-.13,7.09-.2"/><path class="cls-5" d="M52.69,64.01v-9.32h13.79v-6.65h-13.79v-8.88h15.15v-6.65h-22.62v36.82c7.37-.25,15.07-.56,22.89-.94v-4.38h-15.42Z"/><path class="cls-5" d="M97.38,51.25c0,1.71-.16,3.37-.49,4.99-.33,1.62-.9,3.04-1.72,4.28-.82,1.24-1.93,2.23-3.32,2.97-1.4.75-3.15,1.12-5.26,1.12-.18,0-.46,0-.82-.03-.36-.02-.74-.03-1.14-.05-.4-.02-.77-.04-1.12-.06-.34-.02-.59-.05-.74-.08v-25.56c.4-.07,1.01-.13,1.83-.16.82-.04,1.63-.06,2.43-.06,2.07,0,3.78.38,5.12,1.15,1.34.76,2.41,1.74,3.19,2.94.78,1.2,1.32,2.55,1.61,4.06.29,1.51.44,3.01.44,4.5M104.25,58.72c.65-2.4.98-4.89.98-7.47,0-2.84-.35-5.43-1.03-7.79-.69-2.36-1.78-4.4-3.27-6.11-1.49-1.71-3.43-3.03-5.83-3.98-2.4-.94-5.29-1.42-8.67-1.42-.76,0-1.63.01-2.59.03-.96.02-1.95.05-2.97.08-1.02.04-2.01.09-2.97.16-.96.07-1.83.16-2.59.27v35.51c8.19-.44,16.42-.97,24.44-1.6.44-.42.85-.86,1.23-1.32,1.53-1.85,2.62-3.98,3.27-6.38"/><path class="cls-5" d="M119.37,64.59v-32.09h-7.47v32.86c2.53-.24,5.02-.5,7.47-.77"/><path class="cls-5" d="M379.22,12.34V0c-.11,0-117.11,0-177.73,0v12.33c60.64,0,177.73,0,177.73,0"/></g><polygon class="cls-5" points="201.81 75.67 228.15 75.67 228.15 68.02 210.4 68.02 210.4 57.3 226.26 57.3 226.26 49.65 210.4 49.65 210.4 39.43 227.83 39.43 227.83 31.78 201.81 31.78 201.81 75.67"/><g class="cls-3"><path class="cls-5" d="M265.84,73.87l-1.76-6.98c-.96.59-2.09,1.07-3.39,1.44-1.3.38-2.88.56-4.76.56-2.01,0-3.77-.37-5.3-1.1-1.53-.73-2.8-1.76-3.82-3.08-1.02-1.32-1.79-2.91-2.29-4.77-.5-1.86-.75-3.48-.75-5.75,0-5.19,1.06-8.57,3.17-11.04,2.08-2.43,5.06-3.68,8.45-3.72.03,0,5.68,0,7.14,0v-7.66c-1.45,0-7.67,0-7.87,0-2.34,0-4.81.42-7.15,1.19-2.34.77-4.43,2.01-6.33,3.79-1.9,1.78-3.45,4.12-4.64,7.02-1.19,2.9-1.79,6.07-1.79,10.37s.53,7.22,1.6,10.12c1.07,2.91,2.5,5.25,4.29,7.07,1.8,1.82,3.88,3.12,6.24,3.93,2.36.81,4.86,1.26,7.49,1.26,2.17,0,4.29-.21,6.36-.62,2.07-.41,3.77-1.1,5.11-2.05"/></g><polygon class="cls-5" points="300.65 31.78 268.05 31.78 268.05 39.43 280.09 39.43 280.09 75.67 288.68 75.67 288.68 39.43 300.65 39.43 300.65 31.78"/><g class="cls-4"><path class="cls-5" d="M330.76,53.73c0,5.35-.84,9.22-2.51,11.6-1.67,2.38-4.04,3.57-7.08,3.57-1.67,0-3.12-.38-4.33-1.13-1.21-.75-2.2-1.8-2.98-3.13-.77-1.34-1.35-2.94-1.72-4.8-.38-1.86-.56-3.9-.56-6.11,0-5.22.83-9.06,2.51-11.5,1.67-2.44,4.03-3.67,7.09-3.67,1.75,0,3.24.39,4.45,1.16,1.21.77,2.2,1.85,2.95,3.23.75,1.38,1.31,2.99,1.66,4.83s.53,3.82.53,5.96M339.79,53.73c0-3.43-.38-6.54-1.13-9.34-.75-2.8-1.9-5.2-3.45-7.21-1.55-2.01-3.49-3.55-5.83-4.64-2.34-1.09-5.08-1.63-8.21-1.63-5.98,0-10.58,1.97-13.79,5.92-3.22,3.95-4.83,9.58-4.83,16.9,0,3.43.38,6.54,1.13,9.34.75,2.8,1.89,5.2,3.42,7.21,1.52,2.01,3.46,3.54,5.8,4.62,2.34,1.09,5.1,1.65,8.28,1.65,5.93,0,10.52-1.98,13.76-5.93,3.24-3.95,4.86-9.58,4.86-16.9"/><path class="cls-5" d="M367.08,44.82c0,2.51-.71,4.31-2.13,5.39-1.42,1.09-3.32,1.63-5.71,1.63h-3.64v-12.73c.46-.12,1.12-.21,1.98-.25.86-.04,1.72-.06,2.6-.06,2.26,0,3.97.53,5.14,1.6,1.17,1.07,1.75,2.54,1.75,4.42M373.61,52.28c1.67-2.26,2.51-5.18,2.51-8.78,0-2.42-.47-4.44-1.41-6.05-.94-1.61-2.19-2.87-3.76-3.79-1.57-.92-3.34-1.57-5.33-1.94-1.99-.38-4-.56-6.05-.56-.88,0-1.84.02-2.88.06-1.05.04-2.12.1-3.23.19-1.11.08-2.22.2-3.32.34-1.11.15-2.14.3-3.1.47v43.45h8.59v-17.99l4.51.82,9.97,17.18h9.91l-11.63-19.22s.09-.05.14-.07c2.06-.92,3.76-2.29,5.1-4.09"/><path class="cls-5" d="M150.59,62.43C111.71,71.25,31.17,72.48,0,73.13v2.82h148.72c.7-1.12,1.29-2.24,1.73-3.33,1.2-2.98,1.36-6.12.46-9.33-.11-.29-.21-.57-.32-.86M188.67,49.93c-.34-2.49-1.07-4.66-2.23-6.51-1.63-2.6-3.68-4.78-6.14-6.55-2.46-1.77-5.13-3.28-8.01-4.52-2.88-1.25-5.55-2.46-8.01-3.64-2.46-1.18-4.51-2.46-6.14-3.85-1.63-1.39-2.44-3.12-2.44-5.2,0-2.22.88-3.99,2.65-5.31,1.77-1.32,4.32-2.02,7.65-2.02h6.01V0h-6.01c-3.68,0-7.01.42-9.99,1.25-2.98.83-5.56,2.12-7.75,3.85-2.18,1.73-3.87,3.9-5.04,6.5-1.18,2.6-1.77,5.67-1.77,9.2,0,4.09.82,7.46,2.44,10.09,1.63,2.64,3.67,4.84,6.14,6.61.74.53,1.5,1.02,2.27,1.5.7-.49,1.47-.9,2.3-1.24,3.01-1.2,6.17-1.14,9.4.16,2.21.89,4.05,2.32,5.48,4.23,1.12,1.51,1.78,3.09,1.98,4.7,3.58-2.46,7.47-3.02,11.27-1.51,2.73,1.08,4.59,2.55,5.93,4.59"/><path class="cls-2" d="M188.12,59.85c.4-1,.6-2.06.63-3.13.05-1.61-.3-3.24-1.07-4.74-1.15-2.24-2.86-3.78-5.64-4.88-3.71-1.47-7.4-.63-10.89,2.39l-1.84,1.6.28-2.42c.21-1.86-.32-3.62-1.62-5.38-1.22-1.63-2.79-2.84-4.67-3.6-2.8-1.13-5.41-1.18-7.99-.15-2.56,1.02-4.35,2.85-5.46,5.61-1.13,2.81-1.24,5.82-.31,8.96,1.07,2.85,2.12,5.71,3.17,8.57l.02.07c1.03,3.64.86,7.2-.51,10.59-.31.77-.8,1.85-1.23,2.63,7.67-.57,14.64-1.86,20.51-3.72,8.92-2.84,14.52-7.17,16.63-12.39"/></g></svg>